<mxfile host="app.diagrams.net" modified="2020-09-26T08:27:47.658Z" agent="5.0 (Windows NT 10.0; Win64; x64) AppleWebKit/537.36 (KHTML, like Gecko) Chrome/84.0.4147.105 Safari/537.36" etag="c8g3U-HQfjans61AUH-O" version="13.7.5" type="github">
  <diagram id="y6731CKwt_YFJlE6ePr3" name="Page-1">
    <mxGraphModel dx="1170" dy="755" grid="1" gridSize="10" guides="1" tooltips="1" connect="1" arrows="1" fold="1" page="1" pageScale="1" pageWidth="3300" pageHeight="4681" background="none" math="0" shadow="1">
      <root>
        <mxCell id="0" />
        <mxCell id="1" parent="0" />
        <mxCell id="1mZwxNp2BWopFvEGm9J5-4" style="edgeStyle=orthogonalEdgeStyle;orthogonalLoop=1;jettySize=auto;html=1;fontFamily=Verdana;" parent="1" source="1mZwxNp2BWopFvEGm9J5-1" target="1mZwxNp2BWopFvEGm9J5-7" edge="1">
          <mxGeometry relative="1" as="geometry">
            <mxPoint x="680" y="330" as="targetPoint" />
          </mxGeometry>
        </mxCell>
        <mxCell id="1mZwxNp2BWopFvEGm9J5-5" value="信息正确" style="edgeLabel;html=1;align=center;verticalAlign=middle;resizable=0;points=[];fontFamily=Verdana;" parent="1mZwxNp2BWopFvEGm9J5-4" vertex="1" connectable="0">
          <mxGeometry x="0.2556" y="-1" relative="1" as="geometry">
            <mxPoint as="offset" />
          </mxGeometry>
        </mxCell>
        <mxCell id="1mZwxNp2BWopFvEGm9J5-1" value="命令行输入&lt;br&gt;用户名、密码（空格隔开）" style="whiteSpace=wrap;html=1;fontFamily=Verdana;" parent="1" vertex="1">
          <mxGeometry x="580" y="180" width="200" height="60" as="geometry" />
        </mxCell>
        <mxCell id="1mZwxNp2BWopFvEGm9J5-2" style="edgeStyle=orthogonalEdgeStyle;orthogonalLoop=1;jettySize=auto;html=1;entryX=0;entryY=0.5;entryDx=0;entryDy=0;fontFamily=Verdana;" parent="1" source="1mZwxNp2BWopFvEGm9J5-1" target="1mZwxNp2BWopFvEGm9J5-1" edge="1">
          <mxGeometry relative="1" as="geometry">
            <Array as="points">
              <mxPoint x="680" y="260" />
              <mxPoint x="500" y="260" />
              <mxPoint x="500" y="210" />
            </Array>
          </mxGeometry>
        </mxCell>
        <mxCell id="1mZwxNp2BWopFvEGm9J5-3" value="输入有误&lt;br&gt;重新提示" style="edgeLabel;html=1;align=center;verticalAlign=middle;resizable=0;points=[];fontFamily=Verdana;" parent="1mZwxNp2BWopFvEGm9J5-2" vertex="1" connectable="0">
          <mxGeometry x="0.0424" y="3" relative="1" as="geometry">
            <mxPoint as="offset" />
          </mxGeometry>
        </mxCell>
        <mxCell id="wMG-3gAziZJRUNIapBy7-40" style="edgeStyle=orthogonalEdgeStyle;curved=0;rounded=1;sketch=0;orthogonalLoop=1;jettySize=auto;html=1;entryX=0.5;entryY=0;entryDx=0;entryDy=0;" parent="1" source="1mZwxNp2BWopFvEGm9J5-7" target="1mZwxNp2BWopFvEGm9J5-10" edge="1">
          <mxGeometry relative="1" as="geometry" />
        </mxCell>
        <mxCell id="1mZwxNp2BWopFvEGm9J5-7" value="判断账户的&lt;b&gt;默认身份类型&lt;/b&gt;&lt;br&gt;（小学、初中、高中）&lt;br&gt;" style="whiteSpace=wrap;html=1;fontFamily=Verdana;" parent="1" vertex="1">
          <mxGeometry x="585" y="340" width="190" height="60" as="geometry" />
        </mxCell>
        <mxCell id="wMG-3gAziZJRUNIapBy7-2" style="edgeStyle=orthogonalEdgeStyle;orthogonalLoop=1;jettySize=auto;html=1;fontFamily=Verdana;" parent="1" source="1mZwxNp2BWopFvEGm9J5-10" target="wMG-3gAziZJRUNIapBy7-1" edge="1">
          <mxGeometry relative="1" as="geometry" />
        </mxCell>
        <mxCell id="wMG-3gAziZJRUNIapBy7-3" value="[10, 30]" style="edgeLabel;html=1;align=center;verticalAlign=middle;resizable=0;points=[];fontFamily=Verdana;" parent="wMG-3gAziZJRUNIapBy7-2" vertex="1" connectable="0">
          <mxGeometry x="0.2471" y="2" relative="1" as="geometry">
            <mxPoint x="-2" y="11" as="offset" />
          </mxGeometry>
        </mxCell>
        <mxCell id="wMG-3gAziZJRUNIapBy7-5" style="edgeStyle=orthogonalEdgeStyle;orthogonalLoop=1;jettySize=auto;html=1;entryX=0.5;entryY=0;entryDx=0;entryDy=0;fontFamily=Verdana;" parent="1" source="1mZwxNp2BWopFvEGm9J5-10" target="wMG-3gAziZJRUNIapBy7-4" edge="1">
          <mxGeometry relative="1" as="geometry">
            <Array as="points">
              <mxPoint x="680" y="560" />
              <mxPoint x="575" y="560" />
            </Array>
          </mxGeometry>
        </mxCell>
        <mxCell id="wMG-3gAziZJRUNIapBy7-6" value="-1" style="edgeLabel;html=1;align=center;verticalAlign=middle;resizable=0;points=[];fontFamily=Verdana;" parent="wMG-3gAziZJRUNIapBy7-5" vertex="1" connectable="0">
          <mxGeometry x="0.1378" y="-4" relative="1" as="geometry">
            <mxPoint x="-2" y="4" as="offset" />
          </mxGeometry>
        </mxCell>
        <mxCell id="wMG-3gAziZJRUNIapBy7-9" style="edgeStyle=orthogonalEdgeStyle;orthogonalLoop=1;jettySize=auto;html=1;entryX=0.5;entryY=0;entryDx=0;entryDy=0;fontFamily=Verdana;" parent="1" source="1mZwxNp2BWopFvEGm9J5-10" target="wMG-3gAziZJRUNIapBy7-8" edge="1">
          <mxGeometry relative="1" as="geometry">
            <Array as="points">
              <mxPoint x="680" y="560" />
              <mxPoint x="783" y="560" />
            </Array>
          </mxGeometry>
        </mxCell>
        <mxCell id="wMG-3gAziZJRUNIapBy7-10" value="other number" style="edgeLabel;html=1;align=center;verticalAlign=middle;resizable=0;points=[];fontFamily=Verdana;" parent="wMG-3gAziZJRUNIapBy7-9" vertex="1" connectable="0">
          <mxGeometry x="0.1934" relative="1" as="geometry">
            <mxPoint as="offset" />
          </mxGeometry>
        </mxCell>
        <mxCell id="wMG-3gAziZJRUNIapBy7-41" style="edgeStyle=orthogonalEdgeStyle;curved=0;rounded=1;sketch=0;orthogonalLoop=1;jettySize=auto;html=1;entryX=0;entryY=0.5;entryDx=0;entryDy=0;" parent="1" source="1mZwxNp2BWopFvEGm9J5-10" target="wMG-3gAziZJRUNIapBy7-21" edge="1">
          <mxGeometry relative="1" as="geometry" />
        </mxCell>
        <mxCell id="wMG-3gAziZJRUNIapBy7-43" value="NaN" style="edgeLabel;html=1;align=center;verticalAlign=middle;resizable=0;points=[];" parent="wMG-3gAziZJRUNIapBy7-41" vertex="1" connectable="0">
          <mxGeometry x="-0.197" y="1" relative="1" as="geometry">
            <mxPoint x="4" y="1" as="offset" />
          </mxGeometry>
        </mxCell>
        <mxCell id="1mZwxNp2BWopFvEGm9J5-10" value="提示用户输入题目数量" style="whiteSpace=wrap;html=1;fontFamily=Verdana;" parent="1" vertex="1">
          <mxGeometry x="577" y="470" width="206" height="60" as="geometry" />
        </mxCell>
        <mxCell id="wMG-3gAziZJRUNIapBy7-12" style="edgeStyle=orthogonalEdgeStyle;orthogonalLoop=1;jettySize=auto;html=1;shape=link;fontFamily=Verdana;" parent="1" source="wMG-3gAziZJRUNIapBy7-1" target="wMG-3gAziZJRUNIapBy7-11" edge="1">
          <mxGeometry relative="1" as="geometry" />
        </mxCell>
        <mxCell id="wMG-3gAziZJRUNIapBy7-13" style="edgeStyle=orthogonalEdgeStyle;orthogonalLoop=1;jettySize=auto;html=1;entryX=0.5;entryY=0;entryDx=0;entryDy=0;fontFamily=Verdana;" parent="1" source="wMG-3gAziZJRUNIapBy7-1" target="wMG-3gAziZJRUNIapBy7-15" edge="1">
          <mxGeometry relative="1" as="geometry">
            <mxPoint x="680" y="740" as="targetPoint" />
          </mxGeometry>
        </mxCell>
        <mxCell id="wMG-3gAziZJRUNIapBy7-1" value="根据身份生成题目" style="ellipse;whiteSpace=wrap;html=1;fontFamily=Verdana;fillColor=#66FFFF;" parent="1" vertex="1">
          <mxGeometry x="625" y="640" width="110" height="50" as="geometry" />
        </mxCell>
        <mxCell id="wMG-3gAziZJRUNIapBy7-4" value="退出登录" style="ellipse;whiteSpace=wrap;html=1;fontFamily=Verdana;" parent="1" vertex="1">
          <mxGeometry x="540" y="605" width="70" height="30" as="geometry" />
        </mxCell>
        <mxCell id="wMG-3gAziZJRUNIapBy7-8" value="无效值" style="rhombus;whiteSpace=wrap;html=1;fontFamily=Verdana;" parent="1" vertex="1">
          <mxGeometry x="750" y="580" width="65" height="60" as="geometry" />
        </mxCell>
        <mxCell id="wMG-3gAziZJRUNIapBy7-11" value="&lt;b style=&quot;background-color: rgb(255 , 255 , 51)&quot;&gt;同一个老师生成的题目不能与之前的相同&lt;/b&gt;" style="text;html=1;strokeColor=none;fillColor=none;align=center;verticalAlign=middle;whiteSpace=wrap;fontFamily=Verdana;" parent="1" vertex="1">
          <mxGeometry x="440" y="655" width="120" height="20" as="geometry" />
        </mxCell>
        <mxCell id="wMG-3gAziZJRUNIapBy7-16" style="edgeStyle=orthogonalEdgeStyle;orthogonalLoop=1;jettySize=auto;html=1;shape=link;fontFamily=Verdana;entryX=1;entryY=0.5;entryDx=0;entryDy=0;" parent="1" source="wMG-3gAziZJRUNIapBy7-15" target="wMG-3gAziZJRUNIapBy7-17" edge="1">
          <mxGeometry relative="1" as="geometry">
            <mxPoint x="585" y="755" as="targetPoint" />
          </mxGeometry>
        </mxCell>
        <mxCell id="wMG-3gAziZJRUNIapBy7-15" value="保存生成的题目" style="whiteSpace=wrap;html=1;fontFamily=Verdana;" parent="1" vertex="1">
          <mxGeometry x="628.5" y="740" width="103" height="30" as="geometry" />
        </mxCell>
        <mxCell id="wMG-3gAziZJRUNIapBy7-17" value="&lt;ul&gt;&lt;li style=&quot;text-align: left&quot;&gt;&lt;span style=&quot;background-color: rgb(255 , 255 , 51)&quot;&gt;&lt;b&gt;保存格式：年-月-日-时-分-秒.txt&lt;/b&gt;&lt;/span&gt;&lt;/li&gt;&lt;li style=&quot;text-align: left&quot;&gt;&lt;span style=&quot;background-color: rgb(255 , 255 , 51)&quot;&gt;&lt;b&gt;每一个账号一个文件夹&lt;/b&gt;&lt;/span&gt;&lt;/li&gt;&lt;/ul&gt;" style="text;html=1;strokeColor=none;fillColor=none;align=center;verticalAlign=middle;whiteSpace=wrap;fontFamily=Verdana;" parent="1" vertex="1">
          <mxGeometry x="340" y="727.5" width="255" height="55" as="geometry" />
        </mxCell>
        <mxCell id="wMG-3gAziZJRUNIapBy7-28" style="edgeStyle=orthogonalEdgeStyle;curved=0;rounded=1;sketch=0;orthogonalLoop=1;jettySize=auto;html=1;" parent="1" source="wMG-3gAziZJRUNIapBy7-19" target="wMG-3gAziZJRUNIapBy7-27" edge="1">
          <mxGeometry relative="1" as="geometry" />
        </mxCell>
        <mxCell id="wMG-3gAziZJRUNIapBy7-42" style="edgeStyle=orthogonalEdgeStyle;curved=0;rounded=1;sketch=0;orthogonalLoop=1;jettySize=auto;html=1;entryX=1;entryY=0.75;entryDx=0;entryDy=0;" parent="1" source="wMG-3gAziZJRUNIapBy7-19" target="1mZwxNp2BWopFvEGm9J5-10" edge="1">
          <mxGeometry relative="1" as="geometry">
            <Array as="points">
              <mxPoint x="870" y="620" />
              <mxPoint x="870" y="515" />
            </Array>
          </mxGeometry>
        </mxCell>
        <mxCell id="wMG-3gAziZJRUNIapBy7-19" value="切换为XX" style="rounded=0;whiteSpace=wrap;html=1;sketch=0;" parent="1" vertex="1">
          <mxGeometry x="915" y="605" width="70" height="30" as="geometry" />
        </mxCell>
        <mxCell id="wMG-3gAziZJRUNIapBy7-22" value="选择切换用户" style="edgeStyle=orthogonalEdgeStyle;curved=0;rounded=1;sketch=0;orthogonalLoop=1;jettySize=auto;html=1;entryX=0.5;entryY=0;entryDx=0;entryDy=0;" parent="1" source="wMG-3gAziZJRUNIapBy7-21" target="wMG-3gAziZJRUNIapBy7-19" edge="1">
          <mxGeometry relative="1" as="geometry" />
        </mxCell>
        <mxCell id="wMG-3gAziZJRUNIapBy7-21" value="用户输入非数字" style="rounded=0;whiteSpace=wrap;html=1;sketch=0;" parent="1" vertex="1">
          <mxGeometry x="915" y="485" width="70" height="30" as="geometry" />
        </mxCell>
        <mxCell id="wMG-3gAziZJRUNIapBy7-29" style="edgeStyle=orthogonalEdgeStyle;curved=0;rounded=1;sketch=0;orthogonalLoop=1;jettySize=auto;html=1;entryX=1;entryY=0.5;entryDx=0;entryDy=0;" parent="1" source="wMG-3gAziZJRUNIapBy7-27" target="wMG-3gAziZJRUNIapBy7-21" edge="1">
          <mxGeometry relative="1" as="geometry">
            <Array as="points">
              <mxPoint x="1015" y="725" />
              <mxPoint x="1015" y="500" />
            </Array>
          </mxGeometry>
        </mxCell>
        <mxCell id="wMG-3gAziZJRUNIapBy7-27" value="生成错误提示" style="rounded=0;whiteSpace=wrap;html=1;sketch=0;" parent="1" vertex="1">
          <mxGeometry x="900" y="710" width="100" height="30" as="geometry" />
        </mxCell>
        <mxCell id="wMG-3gAziZJRUNIapBy7-31" value="&lt;span style=&quot;background-color: rgb(255 , 255 , 51)&quot;&gt;通过数据库查询认证&lt;/span&gt;" style="text;html=1;strokeColor=none;fillColor=none;align=center;verticalAlign=middle;whiteSpace=wrap;rounded=0;sketch=0;" parent="1" vertex="1">
          <mxGeometry x="860" y="250" width="70" height="20" as="geometry" />
        </mxCell>
        <mxCell id="wMG-3gAziZJRUNIapBy7-33" value="" style="endArrow=none;dashed=1;html=1;dashPattern=1 3;strokeWidth=2;" parent="1" source="wMG-3gAziZJRUNIapBy7-31" edge="1">
          <mxGeometry width="50" height="50" relative="1" as="geometry">
            <mxPoint x="830" y="280" as="sourcePoint" />
            <mxPoint x="680" y="260" as="targetPoint" />
          </mxGeometry>
        </mxCell>
      </root>
    </mxGraphModel>
  </diagram>
</mxfile>
